name C:/MyDriveSym/Projects/mobilecap/Data\Session20210823_0002\mocap\ForceDataProcessed\walkingTS3_forces.mot
datacolumns 19
datarows 17
range 0.33700000 0.34500000
endheader 
time	R_ground_force_vx	R_ground_force_vy	R_ground_force_vz	R_ground_force_px	R_ground_force_py	R_ground_force_pz	R_ground_torque_x	R_ground_torque_y	R_ground_torque_z	L_ground_force_vx	L_ground_force_vy	L_ground_force_vz	L_ground_force_px	L_ground_force_py	L_ground_force_pz	L_ground_torque_x	L_ground_torque_y	L_ground_torque_z	
          0.33700000	        -13.44643500	        460.10522400	        -50.29998200	          0.36681100	          0.00600000	         -0.06128400	          0.00000000	         -2.93961700	          0.00000000	          0.00000000	          0.00000000	          0.00000000	          0.69700600	          0.00000000	         -0.29512700	          0.00000000	          0.00000000	          0.00000000	
          0.33750000	        -13.29695500	        460.20745400	        -50.28329600	          0.36698400	          0.00600000	         -0.06126700	          0.00000000	         -2.94294000	          0.00000000	          0.00000000	          0.00000000	          0.00000000	          0.69700600	          0.00000000	         -0.29512700	          0.00000000	          0.00000000	          0.00000000	
          0.33800000	        -13.14776100	        460.31737000	        -50.26759300	          0.36715500	          0.00600000	         -0.06125100	          0.00000000	         -2.94625000	          0.00000000	          0.00000000	          0.00000000	          0.00000000	          0.69700600	          0.00000000	         -0.29512700	          0.00000000	          0.00000000	          0.00000000	
          0.33850000	        -12.99884300	        460.43495600	        -50.25287000	          0.36732600	          0.00600000	         -0.06123500	          0.00000000	         -2.94954500	          0.00000000	          0.00000000	          0.00000000	          0.00000000	          0.69700600	          0.00000000	         -0.29512700	          0.00000000	          0.00000000	          0.00000000	
          0.33900000	        -12.85019300	        460.56019800	        -50.23912800	          0.36749700	          0.00600000	         -0.06122000	          0.00000000	         -2.95282600	          0.00000000	          0.00000000	          0.00000000	          0.00000000	          0.69700600	          0.00000000	         -0.29512700	          0.00000000	          0.00000000	          0.00000000	
          0.33950000	        -12.70180300	        460.69307900	        -50.22636700	          0.36766600	          0.00600000	         -0.06120400	          0.00000000	         -2.95609100	          0.00000000	          0.00000000	          0.00000000	          0.00000000	          0.69700600	          0.00000000	         -0.29512700	          0.00000000	          0.00000000	          0.00000000	
          0.34000000	        -12.55366300	        460.83358300	        -50.21458600	          0.36783500	          0.00600000	         -0.06118900	          0.00000000	         -2.95934100	          0.00000000	          0.00000000	          0.00000000	          0.00000000	          0.69700600	          0.00000000	         -0.29512700	          0.00000000	          0.00000000	          0.00000000	
          0.34050000	        -12.40576400	        460.98169300	        -50.20378400	          0.36800400	          0.00600000	         -0.06117500	          0.00000000	         -2.96257400	          0.00000000	          0.00000000	          0.00000000	          0.00000000	          0.69700600	          0.00000000	         -0.29512700	          0.00000000	          0.00000000	          0.00000000	
          0.34100000	        -12.25810000	        461.13739300	        -50.19396200	          0.36817200	          0.00600000	         -0.06116000	          0.00000000	         -2.96579000	          0.00000000	          0.00000000	          0.00000000	          0.00000000	          0.69700600	          0.00000000	         -0.29512700	          0.00000000	          0.00000000	          0.00000000	
          0.34150000	        -12.11066000	        461.30066300	        -50.18511800	          0.36833900	          0.00600000	         -0.06114600	          0.00000000	         -2.96898900	          0.00000000	          0.00000000	          0.00000000	          0.00000000	          0.69700600	          0.00000000	         -0.29512700	          0.00000000	          0.00000000	          0.00000000	
          0.34200000	        -11.96343600	        461.47148700	        -50.17725200	          0.36850600	          0.00600000	         -0.06113200	          0.00000000	         -2.97216900	          0.00000000	          0.00000000	          0.00000000	          0.00000000	          0.69700600	          0.00000000	         -0.29512700	          0.00000000	          0.00000000	          0.00000000	
          0.34250000	        -11.81641900	        461.64984500	        -50.17036300	          0.36867200	          0.00600000	         -0.06111900	          0.00000000	         -2.97533000	          0.00000000	          0.00000000	          0.00000000	          0.00000000	          0.69700600	          0.00000000	         -0.29512700	          0.00000000	          0.00000000	          0.00000000	
          0.34300000	        -11.66960100	        461.83571800	        -50.16445000	          0.36883700	          0.00600000	         -0.06110500	          0.00000000	         -2.97847100	          0.00000000	          0.00000000	          0.00000000	          0.00000000	          0.69700600	          0.00000000	         -0.29512700	          0.00000000	          0.00000000	          0.00000000	
          0.34350000	        -11.52297400	        462.02908700	        -50.15951300	          0.36900200	          0.00600000	         -0.06109200	          0.00000000	         -2.98159200	          0.00000000	          0.00000000	          0.00000000	          0.00000000	          0.69700600	          0.00000000	         -0.29512700	          0.00000000	          0.00000000	          0.00000000	
          0.34400000	        -11.37652800	        462.22993100	        -50.15555000	          0.36916600	          0.00600000	         -0.06108000	          0.00000000	         -2.98469200	          0.00000000	          0.00000000	          0.00000000	          0.00000000	          0.69700600	          0.00000000	         -0.29512700	          0.00000000	          0.00000000	          0.00000000	
          0.34450000	        -11.23025500	        462.43823100	        -50.15256000	          0.36933000	          0.00600000	         -0.06106700	          0.00000000	         -2.98777100	          0.00000000	          0.00000000	          0.00000000	          0.00000000	          0.69700600	          0.00000000	         -0.29512700	          0.00000000	          0.00000000	          0.00000000	
          0.34500000	        -11.08414600	        462.65396500	        -50.15054200	          0.36949300	          0.00600000	         -0.06105500	          0.00000000	         -2.99082800	          0.00000000	          0.00000000	          0.00000000	          0.00000000	          0.69700600	          0.00000000	         -0.29512700	          0.00000000	          0.00000000	          0.00000000	
